<?xml version="1.0" ?><svg height="512" id="svg2" version="1.1" viewBox="0 0 511.99999 511.99999" width="512" xmlns="http://www.w3.org/2000/svg" xmlns:cc="http://creativecommons.org/ns#" xmlns:dc="http://purl.org/dc/elements/1.1/" xmlns:inkscape="http://www.inkscape.org/namespaces/inkscape" xmlns:rdf="http://www.w3.org/1999/02/22-rdf-syntax-ns#" xmlns:sodipodi="http://sodipodi.sourceforge.net/DTD/sodipodi-0.dtd" xmlns:svg="http://www.w3.org/2000/svg"><defs id="defs4"/><g id="layer1" transform="translate(0,-540.36218)"><g id="g10239" transform="translate(-2560,1536)"><rect height="512" id="rect9901" ry="0" style="opacity:1;fill:none;fill-opacity:1;fill-rule:nonzero;stroke:none;stroke-width:8;stroke-linecap:round;stroke-linejoin:round;stroke-miterlimit:4;stroke-dasharray:none;stroke-opacity:1" width="512" x="2560" y="-995.63782"/><path d="m 2800.2972,-581.52033 51.1557,4.88934 148.6321,-64.89379 -0.019,-0.0425 10.7203,-4.68055 c 0.301,-0.10536 0.6009,-0.21179 0.8981,-0.34156 l 5.9507,-2.59812 c 6.4263,-2.80574 9.3517,-10.24525 6.5331,-16.66941 l -9.8731,-22.50381 c -2.8187,-6.42416 -10.2404,-9.34603 -16.6667,-6.54023 l -3.5985,1.57112 -0.019,-0.0425 -13.9118,6.07398 0.019,0.0425 -148.6321,64.89379 -31.1892,40.8417 z" id="path9903" style="opacity:1;fill:#000000;fill-opacity:0.25098039;fill-rule:nonzero;stroke:none;stroke-width:8;stroke-linecap:round;stroke-linejoin:round;stroke-miterlimit:4;stroke-dasharray:none;stroke-opacity:0.50196078"/><path d="m 2880.2182,-910.13749 -164.1933,0 c -9.6951,0 -17.5,7.805 -17.5,17.5 l 0,322.99999 c 0,9.695 7.8049,17.5 17.5,17.5 l 213,0 c 9.695,0 17.5,-7.805 17.5,-17.5 l 0,-274.1934" id="path9905" style="opacity:1;fill:#000000;fill-opacity:0.25098039;fill-rule:nonzero;stroke:none;stroke-width:4;stroke-linecap:round;stroke-linejoin:round;stroke-miterlimit:4;stroke-dasharray:none;stroke-opacity:1"/><path d="m 2869.1686,-925.1376 -164.1933,0 c -9.695,0 -17.5,7.805 -17.5,17.5 l 0,322.99999 c 0,9.695 7.805,17.5 17.5,17.5 l 213,0 c 9.695,0 17.5,-7.805 17.5,-17.5 l 0,-274.1934" id="path9907" style="opacity:1;fill:#2a7fff;fill-opacity:1;fill-rule:nonzero;stroke:#2a7fff;stroke-width:4;stroke-linecap:round;stroke-linejoin:round;stroke-miterlimit:4;stroke-dasharray:none;stroke-opacity:1"/><path d="m 2726.4767,-842.52581 15.7812,67.4004 16.7266,0 10.2324,-43.9062 10.5078,43.9062 16.7266,0 15.7812,-67.4004 -15.3886,0 -9.4454,46.3965 -10.2714,-46.3965 -15.0743,0 -10.7832,46.3965 -9.0117,-46.3965 -15.7812,0 z m 96.7441,33.1875 a 8.0008,8.0008 0 1 0 0,16 l 65.1406,0 a 8.0008,8.0008 0 1 0 0,-16 l -65.1406,0 z m -88.6309,47.8613 a 8.0008,8.0008 0 1 0 0,16 l 153.7715,0 a 8.0008,8.0008 0 1 0 0,-16 l -153.7715,0 z m 0,47.8633 a 8.0008,8.0008 0 1 0 0,16 l 153.7715,0 a 8.0008,8.0008 0 1 0 0,-16 l -153.7715,0 z m 0,47.8633 a 8.0008,8.0008 0 1 0 0,16 l 153.7715,0 a 8.0008,8.0008 0 1 0 0,-16 l -153.7715,0 z" id="path9909" style="color:#000000;font-style:normal;font-variant:normal;font-weight:normal;font-stretch:normal;font-size:medium;line-height:normal;font-family:sans-serif;text-indent:0;text-align:start;text-decoration:none;text-decoration-line:none;text-decoration-style:solid;text-decoration-color:#000000;letter-spacing:normal;word-spacing:normal;text-transform:none;direction:ltr;block-progression:tb;writing-mode:lr-tb;baseline-shift:baseline;text-anchor:start;white-space:normal;clip-rule:nonzero;display:inline;overflow:visible;visibility:visible;opacity:1;isolation:auto;mix-blend-mode:normal;color-interpolation:sRGB;color-interpolation-filters:linearRGB;solid-color:#000000;solid-opacity:1;fill:#ffffff;fill-opacity:1;fill-rule:evenodd;stroke:none;stroke-width:16;stroke-linecap:round;stroke-linejoin:round;stroke-miterlimit:4;stroke-dasharray:none;stroke-dashoffset:0;stroke-opacity:1;color-rendering:auto;image-rendering:auto;shape-rendering:auto;text-rendering:auto;enable-background:accumulate"/><path d="m 2937.4595,-681.24841 -109.6426,47.1054 -31.1894,40.8418 51.1562,4.8907 89.6758,-38.3887 z" id="path9911" style="opacity:1;fill:#000000;fill-opacity:0.50196078;fill-rule:nonzero;stroke:none;stroke-width:8;stroke-linecap:round;stroke-linejoin:round;stroke-miterlimit:4;stroke-dasharray:none;stroke-opacity:0.50196078"/><path d="m 2841.8926,-592.65352 -51.1561,-4.89011 31.1889,-40.84247 148.6338,-64.8945 19.9671,45.73257 z" id="path9913" style="opacity:1;fill:#0055d4;fill-opacity:1;fill-rule:nonzero;stroke:none;stroke-width:8;stroke-linecap:round;stroke-linejoin:round;stroke-miterlimit:4;stroke-dasharray:none;stroke-opacity:0.50196078"/><path d="m 2935.4759,-858.83179 -66.3066,-66.30659 0,48.8066 c 0,9.69499 7.805,17.49999 17.5,17.49999 l 48.8066,0 z" id="path9915" style="opacity:1;fill:#ffffff;fill-opacity:1;fill-rule:nonzero;stroke:#ffffff;stroke-width:4;stroke-linecap:round;stroke-linejoin:round;stroke-miterlimit:4;stroke-dasharray:none;stroke-opacity:1"/><path d="m 2790.7372,-597.54378 51.1557,4.88934 15.0624,-20.18706 -25.0457,-2.67846 15.0614,-20.1895 -25.0446,-2.67601 -31.1892,40.84169 z" id="path9917" style="opacity:1;fill:#d5e5ff;fill-opacity:1;fill-rule:nonzero;stroke:none;stroke-width:8;stroke-linecap:round;stroke-linejoin:round;stroke-miterlimit:4;stroke-dasharray:none;stroke-opacity:0.50196078"/><path d="m 2790.7372,-597.54378 25.3376,2.4223 -9.8899,-22.6518 -15.4477,20.2295 z" id="path9919" style="opacity:1;fill:#333333;fill-opacity:1;fill-rule:nonzero;stroke:none;stroke-width:8;stroke-linecap:round;stroke-linejoin:round;stroke-miterlimit:4;stroke-dasharray:none;stroke-opacity:0.50196078"/><path d="m 2985.4596,-669.15319 -9.8735,-22.50459 c -2.8186,-6.42415 0.1067,-13.8639 6.533,-16.66967 l 5.9495,-2.59759 c 6.4263,-2.80577 13.8482,0.11633 16.6667,6.54053 l 9.8735,22.50459 c 2.8186,6.42415 -0.1067,13.8639 -6.533,16.66967 l -5.9495,2.59759 c -6.4263,2.80578 -13.8482,-0.11633 -16.6667,-6.54053 z" id="path9921" style="opacity:1;fill:#aaccff;fill-opacity:1;fill-rule:nonzero;stroke:none;stroke-width:8;stroke-linecap:round;stroke-linejoin:round;stroke-miterlimit:4;stroke-dasharray:none;stroke-opacity:0.50196078"/><rect height="15.178116" id="rect9923" style="opacity:1;fill:#0066ff;fill-opacity:1;fill-rule:nonzero;stroke:none;stroke-width:8;stroke-linecap:round;stroke-linejoin:round;stroke-miterlimit:4;stroke-dasharray:none;stroke-opacity:0.50196078" transform="matrix(-0.40013166,-0.91645767,0.91645767,-0.40013166,0,0)" width="49.90118" x="-593.9425" y="3003.7969"/><path d="m 3010.2208,-691.87931 -219.4453,94.3398 51.1172,4.8868 148.6328,-64.8946 -0.018,-0.0429 -5.0488,-11.5625 c 0,0.003 0,0.006 0.01,0.01 l 5.043,11.5528 10.7402,-4.6895 c 0.2938,-0.1035 0.5888,-0.2053 0.879,-0.332 l 5.9492,-2.5977 c 6.4263,-2.8057 9.3518,-10.2457 6.5332,-16.6699 l -4.3887,-10 z" id="path9925" style="fill:#003380;fill-opacity:0.1254902;fill-rule:evenodd;stroke:none;stroke-width:1px;stroke-linecap:butt;stroke-linejoin:miter;stroke-opacity:1"/></g></g></svg>