<?xml version="1.0" encoding="utf-8"?>
<!-- Generator: Adobe Illustrator 16.0.0, SVG Export Plug-In . SVG Version: 6.00 Build 0)  -->
<!DOCTYPE svg PUBLIC "-//W3C//DTD SVG 1.1//EN" "http://www.w3.org/Graphics/SVG/1.1/DTD/svg11.dtd">
<svg version="1.1" id="Layer_1" xmlns="http://www.w3.org/2000/svg" xmlns:xlink="http://www.w3.org/1999/xlink" x="0px" y="0px"
	 width="875.7px" height="361px" viewBox="0 0 875.7 361" style="enable-background:new 0 0 875.7 361;" xml:space="preserve">
<style type="text/css">
<![CDATA[
	.st0{fill:#008282;}
	.st1{fill:#008989;}
	.st2{fill:#D3D5D6;}
	.st3{fill:#D59C15;}
	.st4{fill:#D59C16;}
]]>
</style>
<g>
	<polygon class="st2" points="90.1,59.3 86.9,59.3 82.9,72.8 86.2,72.8 	"/>
	<polygon class="st1" points="92.1,72.8 96.1,59.3 92.8,59.3 88.9,72.8 	"/>
	<polygon class="st3" points="98.9,72.8 102.8,59.3 99.6,59.3 95.6,72.8 	"/>
	<polygon class="st2" points="262.1,95.4 258.8,95.4 250.5,108.9 253.8,108.9 	"/>
	<polygon class="st1" points="256.1,95.4 252.9,95.4 244.6,108.9 247.8,108.9 	"/>
	<polygon class="st3" points="237.8,108.9 241.1,108.9 249.4,95.4 246.2,95.4 	"/>
	<path class="st3" d="M146.6,161.6c-1.3-4,1.8-4.4,1.8-4.4c15.7-2.5,25.3-6.9,25.3-6.9c25.5-11.7,31.9-34,31.9-37s3.4-2.8,3.4-2.8
		h15c4,0,5-1.7,5-1.7l10.8-14.4l-29.9,0c-3,0-2.5-2.2-2.5-2.2c-0.9-7.9-3.9-17.3-3.9-17.3h28c2,0,1.6,1.2,1.6,1.2l-0.7,3L268.2,68
		l-21.8-15.5c0,7-9.8,6.6-9.8,6.6L111.3,59c-4.5,0-5.4,3.2-5.4,3.2l-2.7,10.6c10.7-0.7,31.1-0.1,31.1-0.1c46.8,1.3,51,19,51,19
		c1.4,2.8-1.9,2.4-1.9,2.4H101c-1.6,0-1.1-1-1.1-1l0.5-2.5c0.1-0.6-0.4-1.1-1-0.9l-32.2,11.6l23.3,15.9c0.5,0.3,1.2,0.2,1.4-0.4
		l1.7-3.5c1.2-3.7,6.5-2.9,6.5-2.9l85.1,0.2c-3.5,11.8-13.8,25.3-36.4,30.2c-15.7,3.4-26.8,3.1-32.2,2.7c-1.8-0.2-3.3,1.5-3,3.3
		l29,154.4c1.5,6.1,5.7,5.5,5.7,5.5h21.5c5.5,0,4.1-4.4,4.1-4.4L146.6,161.6z"/>
	<path class="st4" d="M257.1,150.8h-30.5c-1.4,0-2.7,0.8-3.3,2.1L174.4,253c-1,2.1-1.4,4.5-1,6.9l4.7,28.3c0.2,0.9,1.4,1.1,1.9,0.3
		l52.6-108.3l-13.5,122.8c-0.2,1.7,1.1,3.2,2.8,3.2h21.9c1.5,0,2.7-1.1,2.8-2.6l14.4-148.7C261,152.7,259.3,150.8,257.1,150.8z"/>
	<path class="st4" d="M108.5,178.9c-0.3-1.4-2.3-1.4-2.6,0L78.2,302.5c-0.4,1.9,1,3.8,3,3.8l20.3,0.3c1.5,0,2.7-1,3.1-2.4l15.5-66.7
		c0.3-1.3,0.3-2.7,0-4L108.5,178.9z"/>
	<path class="st3" d="M350.8,193.5c-26-11.2-70.6,6.1-84.2,37.5c-13.6,31.4-1.8,62.5,24.1,73.7c26,11.2,67.1-4.3,80.7-35.7
		C385,237.6,376.7,204.8,350.8,193.5z M344.5,258.4c-6.6,15.1-18.4,34.7-40.8,25.8c-12.7-5-15.1-26.4-9.7-44.1
		c4.8-15.8,16.9-35.1,38.8-28.7C348.7,216.2,351,243.3,344.5,258.4z"/>
	<path class="st3" d="M430.2,283.2c-3.1,0.6-12,1.7-16.2-2.4c-4.1-4.1-2.7-14.4-2.7-14.4l7.8-49.3c0-3.4,3.9-3.2,3.9-3.2h21.1
		c2.5,0,2.9-1.8,2.9-1.8l2.8-17.8c0-2-3.5-1.8-3.5-1.8l-19.2-0.2c-3.9,0-3.4-3.2-3.4-3.2l3.9-25.5l-27.1,7.7
		c-2.3,0.5-2.5,3.6-2.5,3.6l-2.4,15.7c-0.4,2.7-3.1,2.2-3.1,2.2l-10.3-0.2c-3.7,0-3.7,2.3-3.7,2.3l-2.6,16.4c-0.3,3.1,3,2.7,3,2.7
		l8.8-0.2c4.7,0,3.3,4.2,3.3,4.2l-8.2,49.8c0,0-3.5,19.8,4.2,30.2c13.1,15.3,40.3,7.2,40.3,7.2c3.1,0,3.8-3,3.8-3l2.2-16
		C434,282.7,433.3,282.6,430.2,283.2z"/>
	<path class="st3" d="M479.7,193.7l-22.9,0c0,0-3.2-0.2-3.6,4.1l-17.1,105.2c0,0-0.8,3.1,2.1,3l22.9,0.1c0,0,3.7,0.2,4.1-4.3
		l17.1-105.3C482.3,196.6,483.1,193.9,479.7,193.7z"/>
	<path class="st3" d="M471.3,176.2c7.9,0,17.2-6.3,18.4-15.4c1.2-9.4-2.4-14.4-12-15.4c-8.2-0.8-19.2,4.2-20.6,15.4
		C455.7,171.9,463.5,176.2,471.3,176.2z"/>
	<path class="st0" d="M812.5,153.1c-6.1-0.6-14.4,3.1-15.4,11.5c-1,8.3,4.8,11.5,10.7,11.5c5.9,0,12.9-4.7,13.8-11.5
		C822.5,157.6,819.8,153.9,812.5,153.1z"/>
	<path class="st0" d="M588.2,190.8c1.4-27.3-18.6-37.3-35-39.6c-16.4-2.3-51.8,1.2-51.8,1.2c-4,0.7-4.3,5.2-4.3,5.2L473.8,301
		c-1.4,5.8,1.8,5.4,1.8,5.4h14.6c3.5,0,3.9-3.5,3.9-3.5l9.1-55.5c0.4-3.2,4.6-2.6,4.6-2.6c19,2.5,42.2-3.1,50.8-8.2
		C567.4,231.1,586.9,218.1,588.2,190.8z M567,196.3c-1.9,11.2-6.1,21.9-23.9,29.7c-16.4,6.4-34.2,2.4-34.2,2.4s-2.6,0-2-3.8
		l8.8-53.4c0,0,0.2-3.4,3.4-3.8c3.2-0.4,20.3-3.1,33,1.4C564.9,173.4,568.9,185.2,567,196.3z"/>
	<path class="st0" d="M658.3,195.3c-34.1-13-69.1,8.2-82.2,38.5c-13.1,30.3-3.5,60.2,21.5,71.1c25,10.8,66.4-4.2,79.6-34.5
		C690.3,240.2,683.8,205.1,658.3,195.3z M657.4,262.3c-7.9,18.2-24.3,34.5-45.9,29c-15.9-4.1-22.1-32.5-14.8-51
		c8.3-20.8,23.9-37.6,47.8-31.8C664,216.1,665.2,244.1,657.4,262.3z"/>
	<path class="st0" d="M731.2,292.8c-0.3,0-0.5,0-0.8,0c-0.4,0-0.8,0-1.2,0c-6.1,0-10.7-1.5-13.8-4.6c-5.7-5.7-4.5-17-4.2-19.3
		l8.2-53.1c0.2-4.4,2.5-4.6,7.4-4.6l20.5,0h0.6c0.7-0.1,1.2-0.5,1.5-1.1l0.1-1l1.3-9.1l0.1-0.5c0-0.1,0-0.2,0-0.3
		c0-1.5-1.1-2.8-2.5-3.1l-1.5,0l-19.8-0.1c-3.5,0-3.1-3.6-2.9-5.2l3-23.3l-20.8,5.9l-2.5,16.8c-0.5,3.8,0,6.4-3.8,6.4
		c-0.3,0-4.2,0-4.4,0l-8-0.1c0,0-0.1,0-0.1,0c0,0-0.1,0-0.1,0c-1.1,0-2,0.9-2.1,2c0,0.1-0.1,0.2-0.1,0.2c0,0,0,0,0,0l-1.4,10.1
		c0,0.2-0.1,0.3-0.1,0.5c0,0,0,0.1,0,0.1c0,1,0.9,1.9,1.9,1.9c0,0,0.1,0,0.1,0c0,0,0.1,0,0.1,0l11.9-0.1c3.9,0,2.5,3.9,2.1,5.1
		l-9.6,55.6c-0.9,5.2-2,20.4,3.5,28.2c4.7,5.4,12.1,8.2,22.1,8.2c5.5,0,10.5-0.9,13.2-1.5c0.5,0,1-0.1,1.5-0.4
		c0.9-0.4,1.5-1.1,1.9-2l0.2-1.7l0.9-6.5l0.1-0.6c0,0,0-0.1,0-0.1C733.9,294.2,732.7,293,731.2,292.8z"/>
	<path class="st0" d="M781.5,143.3l-14.5,0c-3-0.1-3.1,2.3-3.1,2.3l-26,153l-1.3,5.1c-0.4,3.3,2.3,3.6,2.3,3.6l15.1-0.5
		c3-0.4,3.5-4,3.5-4l27.1-156.6C785.2,143.1,781.5,143.3,781.5,143.3z"/>
	<path class="st0" d="M810.3,194l-14.5,0c-3-0.1-3.1,2.3-3.1,2.3l-18.4,101l-1.3,5.1c-0.4,3.3,2.3,3.6,2.3,3.6l15.1-0.5
		c3-0.4,3.5-4,3.5-4l19.5-104.6C814,193.8,810.3,194,810.3,194z"/>
</g>
</svg>
