<?xml version="1.0" encoding="utf-8"?>
<!-- Generator: Adobe Illustrator 21.0.2, SVG Export Plug-In . SVG Version: 6.00 Build 0)  -->
<svg version="1.1" id="Layer_1" xmlns="http://www.w3.org/2000/svg" xmlns:xlink="http://www.w3.org/1999/xlink" x="0px" y="0px"
	 viewBox="0 0 100 100" style="enable-background:new 0 0 100 100;" xml:space="preserve">
<style type="text/css">
	.st0{fill:#568E99;}
</style>
<title>about</title>
<path class="st0" d="M50,0C22.4,0,0,22.4,0,50s22.4,50,50,50s50-22.4,50-50S77.6,0,50,0z M60.4,77.5c-2.6,1-4.6,1.8-6.2,2.3
	c-1.7,0.6-3.5,0.8-5.3,0.8c-3.1,0-5.5-0.8-7.3-2.3c-1.7-1.4-2.6-3.6-2.6-5.8c0-0.9,0.1-1.9,0.2-2.8c0.1-0.9,0.3-2,0.6-3.2l3.2-11.4
	c0.3-1.1,0.5-2.1,0.7-3.1c0.2-0.9,0.3-1.8,0.3-2.7c0.1-1.1-0.2-2.2-0.9-3c-0.6-0.6-1.7-0.8-3.4-0.8c-0.9,0-1.7,0.1-2.6,0.4
	c-0.9,0.3-1.6,0.5-2.2,0.7l0.8-3.5c2.1-0.9,4.1-1.6,6-2.2c1.8-0.6,3.6-0.9,5.5-1c3.1,0,5.5,0.8,7.2,2.2c1.7,1.5,2.6,3.6,2.5,5.8
	c0,0.5-0.1,1.4-0.2,2.6c-0.1,1.2-0.3,2.3-0.6,3.4L53,65.4c-0.3,0.9-0.5,2-0.7,3.1c-0.2,0.9-0.3,1.8-0.3,2.7c-0.1,1.1,0.2,2.3,1,3.1
	c1,0.6,2.3,0.9,3.5,0.8c0.9,0,1.8-0.2,2.7-0.4c0.7-0.2,1.4-0.4,2.1-0.7L60.4,77.5z M59.8,31.5c-1.5,1.4-3.4,2.1-5.4,2.1
	c-2,0-4-0.7-5.4-2.1c-1.4-1.3-2.3-3.1-2.3-5c0-2,0.8-3.8,2.3-5.1c1.5-1.4,3.4-2.1,5.4-2.1c2,0,3.9,0.7,5.4,2.1
	c2.8,2.5,3,6.8,0.5,9.6C60.1,31.1,60,31.3,59.8,31.5L59.8,31.5z"/>
</svg>
