<svg id="Layer_1" data-name="Layer 1" xmlns="http://www.w3.org/2000/svg" viewBox="0 0 100 100"><defs><style>.cls-1{fill:#ac5282;}</style></defs><title>about</title><path class="cls-1" d="M50,0a50,50,0,1,0,50,50A50,50,0,0,0,50,0ZM60.41,77.49Q56.55,79,54.25,79.81a16.25,16.25,0,0,1-5.34.8q-4.67,0-7.27-2.28a7.36,7.36,0,0,1-2.59-5.79,21,21,0,0,1,.19-2.79c.13-.95.34-2,.62-3.21l3.22-11.38c.28-1.09.53-2.13.72-3.09a13.72,13.72,0,0,0,.29-2.68,4.13,4.13,0,0,0-.9-3c-.61-.57-1.74-.85-3.44-.85a9,9,0,0,0-2.56.38c-.87.27-1.62.51-2.24.74l.85-3.5q3.16-1.29,6.05-2.21A17.88,17.88,0,0,1,47.32,40c3.09,0,5.48.75,7.16,2.24A7.45,7.45,0,0,1,57,48.06q0,.74-.17,2.61a17.48,17.48,0,0,1-.64,3.43L53,65.45c-.26.91-.5,2-.71,3.12A16.47,16.47,0,0,0,52,71.22a3.81,3.81,0,0,0,1,3.08,5.66,5.66,0,0,0,3.5.82,10.15,10.15,0,0,0,2.65-.41A15.07,15.07,0,0,0,61.27,74Zm-.57-46a7.65,7.65,0,0,1-5.4,2.08A7.73,7.73,0,0,1,49,31.45a6.65,6.65,0,0,1-2.26-5A6.72,6.72,0,0,1,49,21.33a7.67,7.67,0,0,1,5.42-2.1,7.59,7.59,0,0,1,5.4,2.1,6.82,6.82,0,0,1,0,10.11Z"/></svg>