<svg id="Layer_1" data-name="Layer 1" xmlns="http://www.w3.org/2000/svg" viewBox="0 0 100 100"><defs><style>.cls-1{fill:#fff;}</style></defs><title>about_flat_white</title><path class="cls-1" d="M50,0a50,50,0,1,0,50,50A50,50,0,0,0,50,0ZM60.4,77.5c-2.6,1-4.6,1.8-6.2,2.3a15.86,15.86,0,0,1-5.3.8,11,11,0,0,1-7.3-2.3A7.52,7.52,0,0,1,39,72.5a26.35,26.35,0,0,1,.2-2.8,24.89,24.89,0,0,1,.6-3.2L43,55.1c.3-1.1.5-2.1.7-3.1a12.41,12.41,0,0,0,.3-2.7,4,4,0,0,0-.9-3c-.6-.6-1.7-.8-3.4-.8a7.83,7.83,0,0,0-2.6.4c-.9.3-1.6.5-2.2.7l.8-3.5c2.1-.9,4.1-1.6,6-2.2a20.53,20.53,0,0,1,5.5-1,11,11,0,0,1,7.2,2.2,7.25,7.25,0,0,1,2.5,5.8c0,.5-.1,1.4-.2,2.6a18.57,18.57,0,0,1-.6,3.4L53,65.4a23.76,23.76,0,0,0-.7,3.1,12.41,12.41,0,0,0-.3,2.7,3.91,3.91,0,0,0,1,3.1,6,6,0,0,0,3.5.8,12.59,12.59,0,0,0,2.7-.4,17.23,17.23,0,0,0,2.1-.7Zm-.6-46a7.81,7.81,0,0,1-5.4,2.1A7.64,7.64,0,0,1,49,31.5a6.92,6.92,0,0,1-2.3-5A6.61,6.61,0,0,1,49,21.4a8,8,0,0,1,10.8,0,6.8,6.8,0,0,1,.5,9.6c-.2.1-.3.3-.5.5Z"/></svg>