<svg id="Layer_1" data-name="Layer 1" xmlns="http://www.w3.org/2000/svg" viewBox="0 0 99.55 95"><defs><style>.cls-1{fill:#fff;}</style></defs><title>bid_flat_white</title><polygon class="cls-1" points="47.33 89.16 47.33 76.3 3.7 76.3 3.7 89.16 0 89.16 0 95 51.03 95 51.03 89.16 47.33 89.16"/><polygon class="cls-1" points="17.8 32.55 7.74 42.6 35.85 70.71 45.91 60.65 17.8 32.55"/><rect class="cls-1" x="52.31" y="-0.82" width="14.15" height="39.75" transform="translate(3.92 47.58) rotate(-45)"/><path class="cls-1" d="M97.42,78.39,59.73,40.7l1.52-1.52-22-22L25,31.5l22,22,1.65-1.65L86.31,89.5A7.86,7.86,0,0,0,97.42,78.39Z" transform="translate(0 0)"/></svg>