<svg id="Layer_1" data-name="Layer 1" xmlns="http://www.w3.org/2000/svg" viewBox="0 0 99.72 95"><defs><style>.cls-1{fill:#d29b0c;}</style></defs><title>bid_clr</title><polygon class="cls-1" points="47.33 89.16 47.33 76.3 3.7 76.3 3.7 89.16 0 89.16 0 95 51.03 95 51.03 89.16 47.33 89.16"/><polygon class="cls-1" points="17.8 32.55 7.74 42.6 35.85 70.71 45.91 60.65 17.8 32.55"/><rect class="cls-1" x="52.46" y="1.68" width="14.15" height="39.75" transform="translate(2.05 45.91) rotate(-45)"/><path class="cls-1" d="M97.56,80.89,59.87,43.2l1.52-1.52-22-22L25.13,34l22,22,1.65-1.65L86.45,92A7.86,7.86,0,0,0,97.56,80.89Z" transform="translate(-0.14 -2.5)"/></svg>