<svg id="Layer_1" data-name="Layer 1" xmlns="http://www.w3.org/2000/svg" viewBox="0 0 97.78 100"><defs><style>.cls-1{fill:#a0a0a0;}</style></defs><title>calendar</title><path class="cls-1" d="M36.43,55.17a2.27,2.27,0,0,0-2.27-2.27H26.24A2.27,2.27,0,0,0,24,55.17v7.92a2.27,2.27,0,0,0,2.27,2.27h7.92a2.27,2.27,0,0,0,2.27-2.27V55.17Z" transform="translate(-1.11)"/><path class="cls-1" d="M56.23,55.17A2.27,2.27,0,0,0,54,52.9H46a2.27,2.27,0,0,0-2.27,2.27v7.92A2.27,2.27,0,0,0,46,65.36H54a2.27,2.27,0,0,0,2.27-2.27Z" transform="translate(-1.11)"/><path class="cls-1" d="M76,55.17a2.27,2.27,0,0,0-2.27-2.27H65.84a2.27,2.27,0,0,0-2.27,2.27v7.92a2.27,2.27,0,0,0,2.27,2.27h7.92A2.27,2.27,0,0,0,76,63.09Z" transform="translate(-1.11)"/><path class="cls-1" d="M36.43,75a2.27,2.27,0,0,0-2.27-2.27H26.24A2.27,2.27,0,0,0,24,75v7.92a2.27,2.27,0,0,0,2.27,2.27h7.92a2.27,2.27,0,0,0,2.27-2.27V75Z" transform="translate(-1.11)"/><path class="cls-1" d="M56.23,75A2.27,2.27,0,0,0,54,72.7H46A2.27,2.27,0,0,0,43.77,75v7.92A2.27,2.27,0,0,0,46,85.15H54a2.27,2.27,0,0,0,2.27-2.27Z" transform="translate(-1.11)"/><path class="cls-1" d="M76,75a2.27,2.27,0,0,0-2.27-2.27H65.84A2.27,2.27,0,0,0,63.57,75v7.92a2.27,2.27,0,0,0,2.27,2.27h7.92A2.27,2.27,0,0,0,76,82.88V75Z" transform="translate(-1.11)"/><path class="cls-1" d="M90.19,11.13v12.1a9.88,9.88,0,0,1-9.9,9.87H74a9.93,9.93,0,0,1-10-9.87V11.09H35.92V23.23A9.93,9.93,0,0,1,26,33.1H19.71a9.88,9.88,0,0,1-9.9-9.87V11.13a9,9,0,0,0-8.7,9V91a9,9,0,0,0,9,9H89.93a9,9,0,0,0,9-9V20.09A9,9,0,0,0,90.19,11.13Zm-2.9,75.43a3.88,3.88,0,0,1-3.88,3.88h-67a3.88,3.88,0,0,1-3.88-3.88V50a3.88,3.88,0,0,1,3.88-3.88h67A3.88,3.88,0,0,1,87.29,50V86.57Z" transform="translate(-1.11)"/><path class="cls-1" d="M19.69,26.62h6.18a3.39,3.39,0,0,0,3.4-3.39V3.4A3.4,3.4,0,0,0,25.87,0H19.69a3.4,3.4,0,0,0-3.4,3.4V23.23A3.39,3.39,0,0,0,19.69,26.62Z" transform="translate(-1.11)"/><path class="cls-1" d="M74,26.62h6.18a3.39,3.39,0,0,0,3.39-3.39V3.4A3.39,3.39,0,0,0,80.14,0H74a3.4,3.4,0,0,0-3.4,3.4V23.23A3.39,3.39,0,0,0,74,26.62Z" transform="translate(-1.11)"/></svg>