<svg id="Layer_1" data-name="Layer 1" xmlns="http://www.w3.org/2000/svg" viewBox="0 0 99.96 100"><defs><style>.cls-1{fill:#fff;}</style></defs><title>call</title><path class="cls-1" d="M31.41,33.11,8.32,10l8.94-9a3.55,3.55,0,0,1,5,0l18,18a3.56,3.56,0,0,1,0,5L36.29,28l-3.67,3.67A10.1,10.1,0,0,0,31.41,33.11Zm19,37.63C46.62,67.48,43,64,39.48,60.52s-7-7.15-10.22-10.95a11.38,11.38,0,0,1-1.8-11.3L3.77,14.56C-1.75,20.23-1,34.29,5,46.64A88.94,88.94,0,0,0,14.44,61.4,132.23,132.23,0,0,0,25.73,74.29,126,126,0,0,0,38.6,85.63,89,89,0,0,0,53.33,95c12.37,6,26.44,6.7,32.1,1.18L61.72,72.52A11.42,11.42,0,0,1,50.41,70.74Zm48.56,7-18-18a3.58,3.58,0,0,0-5,0h0L72,63.7l-3.64,3.66a11.06,11.06,0,0,1-1.46,1.21L90,91.68l9-8.95A3.52,3.52,0,0,0,99,77.73Z" transform="translate(-0.02 0)"/></svg>