<svg id="Layer_1" data-name="Layer 1" xmlns="http://www.w3.org/2000/svg" viewBox="0 0 100 64"><defs><style>.cls-1{fill:#568e99;}.cls-2{fill:none;}</style></defs><title>card</title><rect class="cls-1" x="13" y="14.5" width="20.25" height="12.25"/><rect class="cls-2" x="10" y="11.5" width="26.25" height="18.25"/><circle class="cls-1" cx="68" cy="20.63" r="6.06"/><circle class="cls-1" cx="83.13" cy="20.63" r="6.06"/><path class="cls-2" d="M83.13,29.56a9.06,9.06,0,0,0-7.56,4.08,9.06,9.06,0,1,0,0,10,9.06,9.06,0,1,0,7.56-14Z" transform="translate(0 -18)"/><rect class="cls-2" x="10" y="11.5" width="26.25" height="18.25"/><path class="cls-1" d="M88,18H12A12,12,0,0,0,0,30V70A12,12,0,0,0,12,82H88a12,12,0,0,0,12-12V30A12,12,0,0,0,88,18ZM10,29.5H36.25V47.75H10ZM24.18,74.08H11.5v-4H24.18Zm22.17,0H33.67v-4H46.35Zm22.17,0H55.84v-4H68.52Zm22.17,0H78v-4H90.69Zm-7.56-26.4a9.06,9.06,0,0,1-7.56-4.08,9.06,9.06,0,1,1,0-10,9.06,9.06,0,1,1,7.56,14Z" transform="translate(0 -18)"/></svg>