<svg id="Layer_1" data-name="Layer 1" xmlns="http://www.w3.org/2000/svg" viewBox="0 0 80 99.06"><defs><style>.cls-1{fill:#fff;}</style></defs><title>company_flat_white</title><path class="cls-1" d="M68.25,93.81V7.31H56.53V0H23.47V7.31H11.75v86.5H0v5.25H29.83v-15H50.17v15H80V93.81ZM28,72.06H18v-10H28Zm0-15.67H18v-10H28Zm0-15.67H18v-10H28Zm0-15.66H18v-10H28Zm17,47H35v-10H45Zm0-15.67H35v-10H45Zm0-15.67H35v-10H45Zm0-15.66H35v-10H45Zm17,47H52v-10H62Zm0-15.67H52v-10H62Zm0-15.67H52v-10H62Zm0-15.66H52v-10H62Z"/></svg>