<svg id="Layer_1" data-name="Layer 1" xmlns="http://www.w3.org/2000/svg" viewBox="0 0 99.99 99.8"><defs><style>.cls-1{fill:#568e99;}</style></defs><title>contact</title><path class="cls-1" d="M97.76,78.89,82.31,63.47A8.05,8.05,0,0,0,71,63.69l-7.78,7.78-1.54-.85A77.43,77.43,0,0,1,42.93,57.08,77.86,77.86,0,0,1,29.37,38.33l-.84-1.5,5.22-5.21L36.32,29a8,8,0,0,0,.25-11.31l0,0L21.08,2.24a8,8,0,0,0-11.31.17l0,0L5.38,6.84,5.5,7a25.17,25.17,0,0,0-3.59,6.33,26.23,26.23,0,0,0-1.6,6.42C-1.72,36.6,6,52,27,73,56,102,79.34,99.81,80.34,99.7a26.09,26.09,0,0,0,6.43-1.62A25.08,25.08,0,0,0,93,94.51l.1.08,4.41-4.32A8.06,8.06,0,0,0,97.76,78.89Z" transform="translate(0 0.02)"/></svg>