<svg id="Layer_1" data-name="Layer 1" xmlns="http://www.w3.org/2000/svg" viewBox="0 0 99.99 99.8"><defs><style>.cls-1{fill:#fff;}</style></defs><title>contact_flat_white</title><path class="cls-1" d="M97.76,78.91,82.31,63.49A8.05,8.05,0,0,0,71,63.71l-7.78,7.78-1.54-.85A77.43,77.43,0,0,1,42.93,57.1,77.86,77.86,0,0,1,29.37,38.35l-.84-1.5,5.22-5.21L36.32,29a8,8,0,0,0,.25-11.31h0L21.08,2.26a8,8,0,0,0-11.31.17h0L5.38,6.86,5.5,7a25.17,25.17,0,0,0-3.59,6.33,26.23,26.23,0,0,0-1.6,6.42C-1.72,36.62,6,52,27,73c29,29,52.34,26.81,53.34,26.7a26.09,26.09,0,0,0,6.43-1.62A25.08,25.08,0,0,0,93,94.53l.1.08,4.41-4.32A8.06,8.06,0,0,0,97.76,78.91Z" transform="translate(0 0)"/></svg>