<svg id="Layer_1" data-name="Layer 1" xmlns="http://www.w3.org/2000/svg" viewBox="0 0 100 99.77"><defs><style>.cls-1{fill:#ac5282;}</style></defs><title>contact</title><path class="cls-1" d="M97.76,79,82.31,63.58A8.05,8.05,0,0,0,71,63.8l-7.78,7.78-1.54-.85A77.43,77.43,0,0,1,42.93,57.19,77.86,77.86,0,0,1,29.37,38.44c-.29-.52-.56-1-.84-1.5l5.22-5.21,2.57-2.57a8,8,0,0,0,.21-11.35L21.08,2.35a8,8,0,0,0-11.35.21L5.38,6.95l.12.12a25.17,25.17,0,0,0-3.59,6.33,26.23,26.23,0,0,0-1.6,6.42C-1.72,36.71,6,52.16,27,73.13c29,29,52.34,26.79,53.34,26.68a26.09,26.09,0,0,0,6.43-1.62A25.08,25.08,0,0,0,93,94.62l.1.08,4.41-4.32A8.06,8.06,0,0,0,97.76,79Z" transform="translate(0 -0.11)"/></svg>