<svg id="Layer_1" data-name="Layer 1" xmlns="http://www.w3.org/2000/svg" viewBox="0 0 80.02 100"><defs><style>.cls-1{fill:#fff;}</style></defs><title>editprofile_flat_white</title><path class="cls-1" d="M40,53.27c14.8,0,20.12-14.82,21.52-27C63.25,11.29,56.16,0,40,0S16.77,11.28,18.49,26.28C19.89,38.45,25.21,53.27,40,53.27Z" transform="translate(0.04)"/><path class="cls-1" d="M80,88.56a101,101,0,0,0-1.5-14.12c-1-5.63-2.27-13.89-7.19-17.56-2.84-2.12-6.53-2.82-9.78-4.1a42.45,42.45,0,0,1-4.34-1.94A22.54,22.54,0,0,1,40,58.34a22.53,22.53,0,0,1-17.19-7.51,42.34,42.34,0,0,1-4.34,1.94c-3.26,1.28-6.94,2-9.78,4.1C3.78,60.54,2.51,68.8,1.51,74.43A100.94,100.94,0,0,0,0,88.56c-.13,3.66,1.68,4.17,4.74,5.28a88.62,88.62,0,0,0,11.77,3.25A118.68,118.68,0,0,0,40,100a118.69,118.69,0,0,0,23.52-2.93,88.51,88.51,0,0,0,11.77-3.25C78.36,92.73,80.17,92.21,80,88.56Z" transform="translate(0.04)"/></svg>