<svg id="Layer_1" data-name="Layer 1" xmlns="http://www.w3.org/2000/svg" viewBox="0 0 100 98.13"><defs><style>.cls-1{fill:#3d3d3d;}</style></defs><title>edit</title><path class="cls-1" d="M96.43,92.11H3.57A3.5,3.5,0,0,0,.08,95.59a3.55,3.55,0,0,0,3.48,3.48h93A3.5,3.5,0,0,0,100,95.59,3.57,3.57,0,0,0,96.43,92.11Z" transform="translate(0 -0.93)"/><path class="cls-1" d="M.08,61.29,0,77.84a3.59,3.59,0,0,0,1,2.55,3.4,3.4,0,0,0,2.46,1l16.47-.08a3.4,3.4,0,0,0,2.46-1L79.29,23.43a3.59,3.59,0,0,0,0-5L63,2a3.59,3.59,0,0,0-5,0L46.6,13.41,1.1,58.83A3.78,3.78,0,0,0,.08,61.29ZM60.53,9.42,72,20.88l-6.45,6.45L54.07,15.87ZM7.13,62.82,49.07,20.88,60.53,32.34,18.59,74.19,7,74.28Z" transform="translate(0 -0.93)"/></svg>