<svg id="Layer_1" data-name="Layer 1" xmlns="http://www.w3.org/2000/svg" viewBox="0 0 100 98.08"><defs><style>.cls-1{fill:#fff;}</style></defs><title>edit_white</title><path class="cls-1" d="M96.43,91.18H3.57A3.5,3.5,0,0,0,.08,94.66a3.55,3.55,0,0,0,3.48,3.48h93A3.5,3.5,0,0,0,100,94.66,3.57,3.57,0,0,0,96.43,91.18Z" transform="translate(0 -0.06)"/><path class="cls-1" d="M.08,60.36,0,76.91a3.59,3.59,0,0,0,1,2.55,3.4,3.4,0,0,0,2.46,1l16.47-.08a3.4,3.4,0,0,0,2.46-1L79.29,22.5a3.59,3.59,0,0,0,0-5L63,1.07a3.59,3.59,0,0,0-5,0L46.6,12.48,1.1,57.9A3.78,3.78,0,0,0,.08,60.36ZM60.53,8.49,72,19.95,65.55,26.4,54.07,14.94ZM7.13,61.89,49.07,19.95,60.53,31.41,18.59,73.26,7,73.35Z" transform="translate(0 -0.06)"/></svg>