<svg id="Layer_1" data-name="Layer 1" xmlns="http://www.w3.org/2000/svg" viewBox="0 0 80.08 100.01"><defs><style>.cls-1{fill:#ac5282;}</style></defs><title>edit_profile</title><path class="cls-1" d="M50,53.27c14.8,0,20.12-14.82,21.52-27C73.24,11.29,66.15,0,50,0S26.76,11.28,28.48,26.28C29.88,38.45,35.2,53.27,50,53.27Z" transform="translate(-9.96)"/><path class="cls-1" d="M90,88.56a101,101,0,0,0-1.54-14.12c-1-5.63-2.27-13.89-7.19-17.56-2.84-2.12-6.53-2.82-9.78-4.1a42.45,42.45,0,0,1-4.34-1.94A22.54,22.54,0,0,1,50,58.34a22.53,22.53,0,0,1-17.19-7.51,42.34,42.34,0,0,1-4.34,1.94c-3.26,1.28-6.94,2-9.78,4.1-4.92,3.67-6.19,11.93-7.19,17.56A100.94,100.94,0,0,0,10,88.56c-.13,3.66,1.68,4.17,4.74,5.28a88.62,88.62,0,0,0,11.77,3.25A118.68,118.68,0,0,0,50,100a118.69,118.69,0,0,0,23.52-2.93,88.51,88.51,0,0,0,11.77-3.25C88.35,92.73,90.16,92.21,90,88.56Z" transform="translate(-9.96)"/></svg>