<svg id="Layer_1" data-name="Layer 1" xmlns="http://www.w3.org/2000/svg" viewBox="0 0 100 100"><defs><style>.cls-1{fill:#fff;}</style></defs><title>facebook</title><path class="cls-1" d="M100,50a50,50,0,1,0-50,50A50,50,0,0,0,100,50ZM4.55,50A45.45,45.45,0,1,1,50,95.45,45.45,45.45,0,0,1,4.55,50Z"/><path class="cls-1" d="M64.75,20.51H57.1c-8.6,0-14.15,5.7-14.15,14.52v6.69H35.25a1.2,1.2,0,0,0-1.2,1.2v9.7a1.2,1.2,0,0,0,1.2,1.2h7.69V78.3a1.2,1.2,0,0,0,1.2,1.2h10a1.2,1.2,0,0,0,1.2-1.2V53.82h9a1.2,1.2,0,0,0,1.2-1.2v-9.7a1.2,1.2,0,0,0-1.2-1.2h-9V36c0-2.73.65-4.11,4.2-4.11h5.15a1.2,1.2,0,0,0,1.2-1.2v-9A1.2,1.2,0,0,0,64.75,20.51Z"/></svg>