<svg id="Layer_1" data-name="Layer 1" xmlns="http://www.w3.org/2000/svg" viewBox="0 0 100 100"><defs><style>.cls-1{fill:#e7e7e7;}.cls-2{fill:#c2c2c2;}</style></defs><title>gallery</title><rect class="cls-1" width="100" height="100" rx="8" ry="8"/><path class="cls-2" d="M70.93,67.77H29.07A3.57,3.57,0,0,1,25.5,64.2V35.8a3.57,3.57,0,0,1,3.57-3.57H70.93A3.57,3.57,0,0,1,74.5,35.8V64.2A3.57,3.57,0,0,1,70.93,67.77ZM29.07,35.23a.58.58,0,0,0-.57.57V64.2a.58.58,0,0,0,.57.57H70.93a.58.58,0,0,0,.57-.57V35.8a.58.58,0,0,0-.57-.57Z"/><polygon class="cls-2" points="30 57 30 62.83 69.67 62.83 69.67 52 59.17 43.17 44 53.83 39.33 49.67 30 57"/><circle class="cls-2" cx="34.33" cy="42.33" r="3.58"/></svg>