<svg id="Layer_1" data-name="Layer 1" xmlns="http://www.w3.org/2000/svg" viewBox="0 0 100 99.76"><defs><style>.cls-1{fill:#fff;}</style></defs><title>globe</title><path class="cls-1" d="M29.38,28.82H48V48H27.28A101,101,0,0,1,29.38,28.82Zm0,42.36H48V52H27.28A101,101,0,0,0,29.38,71.18ZM48,24.72V.12c-7.52,1.48-14,11-17.6,24.6ZM74.88,71.18H95.36A49.59,49.59,0,0,0,100,52H76.83A107.3,107.3,0,0,1,74.88,71.18Zm0-42.36A107.67,107.67,0,0,1,76.82,48H100a49.92,49.92,0,0,0-4.63-19.13ZM74,24.72H93.21A50.09,50.09,0,0,0,62.32,1.49C67.37,6.49,71.43,14.58,74,24.72ZM48,99.88V75.28H30.36C34,88.89,40.43,98.4,48,99.88ZM69.64,24.72C66,11.11,59.57,1.6,52,.12v24.6ZM72.73,52H52V71.18H70.62A101.35,101.35,0,0,0,72.73,52ZM0,52A49.78,49.78,0,0,0,4.64,71.18H25.11A107.32,107.32,0,0,1,23.17,52H0ZM26,75.28H6.79A50.1,50.1,0,0,0,37.68,98.51C32.63,93.51,28.58,85.42,26,75.28Zm47.91,0c-2.53,10.14-6.58,18.23-11.63,23.23A50.14,50.14,0,0,0,93.21,75.28ZM26,24.72C28.58,14.58,32.63,6.49,37.68,1.49A50.11,50.11,0,0,0,6.79,24.72Zm44.58,4.1H52V48H72.73A101.34,101.34,0,0,0,70.62,28.82Zm-66,0A49.74,49.74,0,0,0,0,48H23.17a107.49,107.49,0,0,1,1.94-19.13ZM52,75.28v24.6c7.52-1.48,14-11,17.59-24.6H52Z" transform="translate(0 -0.12)"/></svg>