<svg id="Layer_1" data-name="Layer 1" xmlns="http://www.w3.org/2000/svg" viewBox="0 0 100 100"><defs><style>.cls-1{fill:#fff;}</style></defs><title>google</title><path class="cls-1" d="M100,50a50,50,0,1,0-50,50A50,50,0,0,0,100,50ZM4.55,50A45.45,45.45,0,1,1,50,95.45,45.45,45.45,0,0,1,4.55,50Z"/><g id="google-plus"><path class="cls-1" d="M73.66,45.68v-7H69v7H62v4.67h7v7h4.67v-7h7V45.68Zm-18,7.95-2.57-1.87a3.93,3.93,0,0,1-1.87-3.27,4.64,4.64,0,0,1,2.34-3.74c3-2.34,6.08-4.91,6.08-10A11.71,11.71,0,0,0,55,25.58h4l2.8-3.27H47.25c-10.28,0-15.42,6.54-15.42,13.55A11.31,11.31,0,0,0,43.51,47.08h1.87a9.33,9.33,0,0,0-.93,3c0,2.34.93,3.27,2.1,4.67-3.27.23-9.35.93-13.79,3.74-4.21,2.57-5.37,6.08-5.37,8.65,0,5.37,4.91,10.52,15.42,10.52,12.62,0,18.7-7,18.7-13.79C61.5,59,58.93,56.43,55.66,53.62ZM37.9,32.36c0-5.14,3-7.48,6.31-7.48,6.08,0,9.35,8.18,9.35,12.85,0,6.08-4.91,7.24-6.78,7.24C40.94,45,37.9,37.73,37.9,32.36Zm8.41,42.06c-7.71,0-12.62-3.51-12.62-8.65S38.37,59,39.77,58.3a33.48,33.48,0,0,1,7.71-1.17h1.64c5.61,4,7.95,5.61,7.95,9.35C57.06,70.92,52.62,74.42,46.31,74.42Z"/></g></svg>