<svg id="Layer_1" data-name="Layer 1" xmlns="http://www.w3.org/2000/svg" viewBox="0 0 100 100"><defs><style>.cls-1{fill:#fff;}.cls-2{fill:none;}</style></defs><title>instagram</title><path class="cls-1" d="M100,50a50,50,0,1,0-50,50A50,50,0,0,0,100,50ZM4.55,50A45.45,45.45,0,1,1,50,95.45,45.45,45.45,0,0,1,4.55,50Z"/><path class="cls-2" d="M50,60.27A10.27,10.27,0,1,0,39.73,50,10.3,10.3,0,0,0,50,60.27Z"/><path class="cls-1" d="M70.53,24.33H29.47a5.15,5.15,0,0,0-5.13,5.13V70.53a5.15,5.15,0,0,0,5.13,5.13H70.53a5.15,5.15,0,0,0,5.13-5.13V29.47A5.15,5.15,0,0,0,70.53,24.33Zm-3.33,5a2.94,2.94,0,1,1-2.94,2.94A2.94,2.94,0,0,1,67.21,29.31ZM50,39.73A10.27,10.27,0,1,1,39.73,50,10.3,10.3,0,0,1,50,39.73ZM70.53,69.25a1.21,1.21,0,0,1-1.28,1.28H30.75a1.21,1.21,0,0,1-1.28-1.28V47.43h5.39A8.73,8.73,0,0,0,34.6,50a15.4,15.4,0,0,0,30.8,0,8.73,8.73,0,0,0-.26-2.57h5.39Z"/></svg>