<?xml version="1.0" encoding="utf-8"?>
<!-- Generator: Adobe Illustrator 22.1.0, SVG Export Plug-In . SVG Version: 6.00 Build 0)  -->
<svg version="1.1" id="Layer_1" xmlns="http://www.w3.org/2000/svg" xmlns:xlink="http://www.w3.org/1999/xlink" x="0px" y="0px"
	 viewBox="0 0 317 310" style="enable-background:new 0 0 317 310;" xml:space="preserve">
<style type="text/css">
	.st0{fill:none;enable-background:new    ;}
	.st1{fill:#AC5282;}
</style>
<path class="st0" d="M0,0"/>
<path class="st1" d="M30,87v39.2c0,3.7,1.7,7.1,4.6,9.3L128,206L6,299l0,0c-2.3-4.4-3.5-9.3-3.5-14.2V115.3C2.5,115.3,0.5,103,30,87
	z"/>
<path class="st1" d="M287,87v39.2c0,3.7-1.7,7.1-4.6,9.3L189,206l122,93l0,0c2.3-4.4,3.5-9.3,3.5-14.2V115.3
	C314.5,115.3,316.5,103,287,87z"/>
<path class="st1" d="M19,308.1l125.9-96.4c7.7-5.9,18.5-6,26.3-0.1l127.5,96.5c0.8,0.6,0.4,1.9-0.6,1.9H19.7
	C18.7,310,18.2,308.7,19,308.1z"/>
<path class="st1" d="M43.5,0v126l97.5,72c0,0,19.5-10.5,34.5,0l98-72V0H43.5z M198.7,104h-33v33c0,4-3.2,7.2-7.2,7.2
	s-7.2-3.2-7.2-7.2v-33h-33c-4,0-7.2-3.2-7.2-7.2s3.2-7.2,7.2-7.2h33v-33c0-4,3.2-7.2,7.2-7.2s7.2,3.2,7.2,7.2v33h33
	c4,0,7.2,3.2,7.2,7.2S202.7,104,198.7,104z"/>
</svg>
