<svg xmlns="http://www.w3.org/2000/svg" width="416" height="407" viewBox="0 0 416 407">
  <metadata><?xpacket begin="﻿" id="W5M0MpCehiHzreSzNTczkc9d"?>
<x:xmpmeta xmlns:x="adobe:ns:meta/" x:xmptk="Adobe XMP Core 5.6-c138 79.159824, 2016/09/14-01:09:01        ">
   <rdf:RDF xmlns:rdf="http://www.w3.org/1999/02/22-rdf-syntax-ns#">
      <rdf:Description rdf:about=""/>
   </rdf:RDF>
</x:xmpmeta>
                                                                                                    
                                                                                                    
                                                                                                    
                                                                                                    
                                                                                                    
                                                                                                    
                                                                                                    
                                                                                                    
                                                                                                    
                                                                                                    
                                                                                                    
                                                                                                    
                                                                                                    
                                                                                                    
                                                                                                    
                                                                                                    
                                                                                                    
                                                                                                    
                                                                                                    
                                                                                                    
                           
<?xpacket end="w"?></metadata>
<defs>
    <style>
      .cls-1 {
        fill: #568e99;
        fill-rule: evenodd;
      }
    </style>
  </defs>
  <path id="Forma_1" data-name="Forma 1" class="cls-1" d="M43.808,176.3a8.275,8.275,0,0,1-3.274-6.716H40.392V111.907L14.539,132.546A24.954,24.954,0,0,0,5,152.082v229.48a24.377,24.377,0,0,0,3.362,12.143L156.351,282.747,171.5,271.4Zm358.653-43.753-25.853-20.639v57.676h-0.142a8.17,8.17,0,0,1-3.274,6.7L245.554,271.351l32.755,24.369,130.735,97.273A24.386,24.386,0,0,0,412,381.562V152.082A24.961,24.961,0,0,0,402.461,132.546ZM222.975,276.031a24.645,24.645,0,0,0-29.021.051L21.812,405.168A27.112,27.112,0,0,0,31.545,407H385.456a27.3,27.3,0,0,0,10.635-2.171ZM58.088,0V165.445L186.15,260.819a42.557,42.557,0,0,1,44.717,0l128.045-95.374V0H58.088Zm203.5,135.667H217.348v42.4a8.856,8.856,0,0,1-17.7,0v-42.4H155.413a8.487,8.487,0,1,1,0-16.959h44.239v-42.4a8.856,8.856,0,0,1,17.7,0v42.4h44.239A8.487,8.487,0,1,1,261.587,135.667Z"/>
</svg>
