<svg id="Layer_1" data-name="Layer 1" xmlns="http://www.w3.org/2000/svg" viewBox="0 0 100 85"><defs><style>.cls-1{fill:#ac5282;}</style></defs><title>jobs</title><path class="cls-1" d="M45.5,52.5h9v10H100s-.74-22.29-1-29.27C98.75,26.6,96.38,22.5,89,22.5H73L67,11.23c-1.65-3.12-2.22-3.73-5.9-3.73H38.92c-3.68,0-4.24.61-5.9,3.73L27,22.5H11c-7.38,0-9.73,4.1-10,10.73S0,62.5,0,62.5H45.5ZM38.25,17.08c1.15-2.16,1.54-2.58,4.08-2.58H57.67c2.54,0,2.94.42,4.08,2.58l2.88,5.42H35.37ZM54.5,77.5h-9v-10H2.5s.62,9,1,16.61c.16,3.16,1.09,8.39,9,8.39h75c7.91,0,8.82-5.23,9-8.39.44-7.84,1-16.61,1-16.61h-43Z" transform="translate(0 -7.5)"/></svg>