<svg id="Layer_1" data-name="Layer 1" xmlns="http://www.w3.org/2000/svg" viewBox="0 0 93.28 100"><defs><style>.cls-1{fill:#d29b0c;}</style></defs><title>login</title><path class="cls-1" d="M6.34,52.24H65.89L50.54,67.88a3.16,3.16,0,0,0,0,4.36,3.05,3.05,0,0,0,2.11.95,2.94,2.94,0,0,0,2.11-.84L73.89,53.24a3,3,0,0,0,0-4.21L73,48.13a3,3,0,0,0-.77-.76L54.76,29.91a3,3,0,0,0-4.22,0,2.65,2.65,0,0,0,0,3.94l12.7,12.42H6.34a3,3,0,1,0,0,6Z" transform="translate(-3.36)"/><path class="cls-1" d="M96.64,88.48V14.24C96.64,7.09,90.81,0,83.59,0H44.78C37.7,0,31,6.83,31,14.24V31.91a3,3,0,1,0,6,0V14.24C36.94,10.14,41,6,44.78,6H83.59c4,0,7.09,4.38,7.09,8.27V88.48c0,4-3.29,5.55-7.09,5.55H44.78c-3.53,0-7.84-1.32-7.84-5.55V70.72a3,3,0,0,0-6,0V88.48c0,7,6.24,11.52,13.81,11.52H83.59C91.33,100,96.64,95.26,96.64,88.48Z" transform="translate(-3.36)"/></svg>