<svg id="Layer_1" data-name="Layer 1" xmlns="http://www.w3.org/2000/svg" viewBox="0 0 98.9 96.67"><defs><style>.cls-1{fill:#568e99;}</style></defs><title>logout</title><path class="cls-1" d="M69.27,21.51V4.83A4.85,4.85,0,0,0,64.45,0H4.84A4.85,4.85,0,0,0,0,4.83V73.14a4.92,4.92,0,0,0,2.58,4.27l36.73,19a2.44,2.44,0,0,0,3.54-2.17V75.72h21.6a4.85,4.85,0,0,0,4.83-4.83V44.46H59.61V63.63A2.37,2.37,0,0,1,57.29,66H42.94V25a4.92,4.92,0,0,0-2.58-4.27L18.69,9.67h38.5A2.37,2.37,0,0,1,59.61,12s0,.07,0,.1v9.5h9.67Z"/><path class="cls-1" d="M81.68,13.61,97.39,29.34a4.82,4.82,0,0,1,.19,6.81l-.19.19L81.68,52a4.92,4.92,0,0,1-7,.21l-.14-.13A5.14,5.14,0,0,1,74.75,45l7.09-7H54.37a4.77,4.77,0,0,1-3.62-1.61A5.47,5.47,0,0,1,52,28.11a5.16,5.16,0,0,1,2.42-.64H81.84s-7-7-7.09-7a4.87,4.87,0,0,1,6.93-6.85h0Z"/></svg>