<svg id="Layer_1" data-name="Layer 1" xmlns="http://www.w3.org/2000/svg" viewBox="0 0 98.89 96.68"><defs><style>.cls-1{fill:#ac5282;}</style></defs><title>logout</title><path class="cls-1" d="M69.82,23.17V6.49A4.85,4.85,0,0,0,65,1.66H5.39A4.85,4.85,0,0,0,.55,6.49V74.8a4.92,4.92,0,0,0,2.58,4.27l36.73,19a2.44,2.44,0,0,0,3.54-2.17V77.38H65a4.85,4.85,0,0,0,4.83-4.83V46.12H60.16V65.29a2.37,2.37,0,0,1-2.42,2.42H43.49v-41a4.92,4.92,0,0,0-2.58-4.27L19.24,11.33h38.5a2.37,2.37,0,0,1,2.42,2.42v9.5h9.67Z" transform="translate(-0.55 -1.66)"/><path class="cls-1" d="M82.23,15.27,97.94,31a4.82,4.82,0,0,1,0,7L82.23,53.69a4.92,4.92,0,0,1-7.09.08,5.14,5.14,0,0,1,.16-7.09l7.09-7H54.92a4.77,4.77,0,0,1-3.62-1.61,5.47,5.47,0,0,1,1.21-8.3,5.16,5.16,0,0,1,2.42-.64H82.39s-7-7-7.09-7a4.87,4.87,0,1,1,6.93-6.85Z" transform="translate(-0.55 -1.66)"/></svg>