<svg id="Layer_1" data-name="Layer 1" xmlns="http://www.w3.org/2000/svg" viewBox="0 0 100 78.56"><defs><style>.cls-1{fill:#fff;}</style></defs><title>message</title><path class="cls-1" d="M91.06,89.27a8.54,8.54,0,0,0,5.85-2.21L68.58,58.74l-2,1.41q-3.18,2.34-5.16,3.65a31.8,31.8,0,0,1-5.27,2.68A16.07,16.07,0,0,1,50,67.85H49.9a16.06,16.06,0,0,1-6.14-1.37,31.69,31.69,0,0,1-5.27-2.68q-2-1.31-5.16-3.65l-2-1.42L3.1,87.07a8.55,8.55,0,0,0,5.85,2.21Z" transform="translate(0 -10.72)"/><path class="cls-1" d="M5.66,40.91A29.58,29.58,0,0,1,0,36.05V79.14l25-25Z" transform="translate(0 -10.72)"/><path class="cls-1" d="M94.4,40.91Q83,48.62,75,54.19l25,25V36.05A30.79,30.79,0,0,1,94.4,40.91Z" transform="translate(0 -10.72)"/><path class="cls-1" d="M91.06,10.73H8.95a8,8,0,0,0-6.61,2.9A11.26,11.26,0,0,0,0,20.88q0,3.51,3.07,7.62a27.68,27.68,0,0,0,6.53,6.44q1.9,1.34,11.44,7.95l9,6.24,5.63,3.94.83.59L38,54.77q1.81,1.31,3,2.12t2.9,1.81a16.92,16.92,0,0,0,3.21,1.51,8.88,8.88,0,0,0,2.79.5H50a8.88,8.88,0,0,0,2.79-.5A16.89,16.89,0,0,0,56,58.7q1.7-1,2.9-1.81t3-2.12l1.54-1.11.83-.59L70,49.14l20.45-14.2a26.53,26.53,0,0,0,6.81-6.86A14.76,14.76,0,0,0,100,19.65a9,9,0,0,0-8.93-8.93Z" transform="translate(0 -10.72)"/></svg>