<svg id="Layer_1" data-name="Layer 1" xmlns="http://www.w3.org/2000/svg" viewBox="0 0 75 99.46"><defs><style>.cls-1{fill:#fff;}</style></defs><title>password_flat_white</title><path class="cls-1" d="M72.92,37H66.67V28.63a29.17,29.17,0,0,0-58.33,0V37H2.08A2.08,2.08,0,0,0,0,39H0V91.13a8.34,8.34,0,0,0,8.33,8.33H66.67A8.34,8.34,0,0,0,75,91.13V39A2.08,2.08,0,0,0,72.92,37ZM43.74,80.46a2.08,2.08,0,0,1-1.83,2.3H33.33a2.08,2.08,0,0,1-2.07-2.3l1.32-11.8A8.24,8.24,0,0,1,29.17,62a8.34,8.34,0,0,1,16.67,0,8.24,8.24,0,0,1-3.41,6.7ZM54.17,37H20.83V28.63a16.67,16.67,0,0,1,33.33-.82V37Z" transform="translate(0 0)"/></svg>