<svg id="Layer_1" data-name="Layer 1" xmlns="http://www.w3.org/2000/svg" viewBox="0 0 75 99.46"><defs><style>.cls-1{fill:#568e99;}</style></defs><title>password</title><path class="cls-1" d="M72.92,37.5H66.67V29.17a29.17,29.17,0,0,0-58.33,0V37.5H2.08A2.08,2.08,0,0,0,0,39.58H0V91.67A8.34,8.34,0,0,0,8.33,100H66.67A8.34,8.34,0,0,0,75,91.67V39.58a2.08,2.08,0,0,0-2.08-2.08ZM43.74,81a2.08,2.08,0,0,1-1.84,2.3H33.33A2.08,2.08,0,0,1,31.26,81l1.32-11.8a8.24,8.24,0,0,1-3.41-6.7,8.34,8.34,0,0,1,16.67,0,8.24,8.24,0,0,1-3.41,6.7ZM54.17,37.5H20.83V29.17a16.67,16.67,0,1,1,33.33-.82q0,.41,0,.82Z" transform="translate(0 -0.54)"/></svg>