<svg id="Layer_1" data-name="Layer 1" xmlns="http://www.w3.org/2000/svg" viewBox="0 0 75 100"><defs><style>.cls-1{fill:#d29b0c;}</style></defs><title>password_clr</title><path class="cls-1" d="M85.42,37.5H79.17V29.17a29.17,29.17,0,0,0-58.33,0V37.5H14.58a2.08,2.08,0,0,0-2.08,2.08V91.67A8.34,8.34,0,0,0,20.83,100H79.17a8.34,8.34,0,0,0,8.33-8.33V39.58A2.08,2.08,0,0,0,85.42,37.5ZM56.24,81a2.08,2.08,0,0,1-2.07,2.31H45.83A2.08,2.08,0,0,1,43.76,81L45.08,69.2a8.24,8.24,0,0,1-3.41-6.7,8.33,8.33,0,0,1,16.67,0,8.24,8.24,0,0,1-3.41,6.7ZM66.67,37.5H33.33V29.17a16.67,16.67,0,1,1,33.33,0Z" transform="translate(-12.5)"/></svg>