<svg id="Layer_1" data-name="Layer 1" xmlns="http://www.w3.org/2000/svg" viewBox="0 0 100.01 87.2"><defs><style>.cls-1{fill:#7b6e77;}</style></defs><title>payment_White</title><g id="Layer_5" data-name="Layer 5"><path class="cls-1" d="M73.56,0A26.44,26.44,0,1,0,100,26.44,26.44,26.44,0,0,0,73.56,0Zm0,46.76A20.31,20.31,0,1,1,93.87,26.44,20.31,20.31,0,0,1,73.56,46.76Z" transform="translate(0.01 0)"/><path class="cls-1" d="M94.63,65.7a67.28,67.28,0,0,1-21.07,7.18C66.7,74,53.79,71.36,53.79,68.3c0-1.16,11.32,2.86,18.17,1,5.25-1.4,4.51-6.31,1.65-7S54.13,55.56,47,55.3c-3.35-.1-11.61,1.16-15.61,1.82-1.37.22-2.23.2-2.31,1.51-.4,6.09-1.18,18.55-1.61,25.06,0,.14.18,2,1.71.69s4-3,6.18-2.51c3.4.77,32.81,6.16,36.87,5.22,5.75-1.24,22.23-11,25.38-14C102.51,68.39,98.72,63.44,94.63,65.7Z" transform="translate(0.01 0)"/><path class="cls-1" d="M21,57,5.57,56.24a2.77,2.77,0,0,0-2.7,2L.07,83.67A1.68,1.68,0,0,0,1.7,85.85H18.77a2.27,2.27,0,0,0,2.33-2.08L23,59.26A2.1,2.1,0,0,0,21.07,57ZM11.91,82.48a4.26,4.26,0,1,1,4.26-4.26,4.26,4.26,0,0,1-4.26,4.26Z" transform="translate(0.01 0)"/></g><path class="cls-1" d="M80.08,20.46H77.29a6.71,6.71,0,0,0-1.42-3.16h4.21a1,1,0,0,0,0-2.06H66.37a1,1,0,0,0,0,2.06H72.1a4,4,0,0,1,3.11,3.17H66.37a1,1,0,0,0,0,2.06h9a3.54,3.54,0,0,1-1.15,2.27c-2.29,2-7.17,1.57-7.38,1.55A1,1,0,0,0,66,28l9.15,10.59a1,1,0,1,0,1.56-1.34L69,28.45c2-.08,4.74-.51,6.56-2.12a5.54,5.54,0,0,0,1.86-3.81H80.1a1,1,0,0,0,0-2.06Z" transform="translate(0.01 0)"/></svg>