<svg id="Layer_1" data-name="Layer 1" xmlns="http://www.w3.org/2000/svg" viewBox="0 0 100 87.31"><defs><style>.cls-1{fill:#d29b0c;}</style></defs><title>payment_clr</title><g id="Layer_5" data-name="Layer 5"><path class="cls-1" d="M73.56,6.43A26.44,26.44,0,1,0,100,32.87,26.44,26.44,0,0,0,73.56,6.43Zm0,46.76A20.31,20.31,0,1,1,93.87,32.87,20.31,20.31,0,0,1,73.56,53.19Z" transform="translate(0 -6.43)"/><path class="cls-1" d="M94.63,72.13a67.28,67.28,0,0,1-21.07,7.18c-6.86,1.08-19.77-1.52-19.77-4.58,0-1.16,11.32,2.86,18.17,1,5.25-1.4,4.51-6.31,1.65-7s-19.48-6.74-26.59-7c-3.35-.1-11.61,1.16-15.61,1.82-1.37.22-2.23.2-2.31,1.51-.4,6.09-1.18,18.55-1.61,25.06,0,.14.18,2,1.71.69s4-3,6.18-2.51c3.4.77,32.81,6.16,36.87,5.22C78,92.28,94.48,82.54,97.63,79.52,102.51,74.82,98.72,69.87,94.63,72.13Z" transform="translate(0 -6.43)"/><path class="cls-1" d="M21,63.43,5.57,62.67a2.77,2.77,0,0,0-2.7,2L.07,90.1a1.68,1.68,0,0,0,1.63,2.18H18.77A2.27,2.27,0,0,0,21.1,90.2L23,65.69A2.1,2.1,0,0,0,21,63.43ZM11.91,88.91a4.26,4.26,0,1,1,4.26-4.26A4.26,4.26,0,0,1,11.91,88.91Z" transform="translate(0 -6.43)"/></g><path class="cls-1" d="M80.08,26.89H77.29a6.71,6.71,0,0,0-1.42-3.16h4.21a1,1,0,0,0,0-2.06H66.37a1,1,0,0,0,0,2.06H72.1a4,4,0,0,1,3.11,3.17H66.37a1,1,0,0,0,0,2.06h9a3.54,3.54,0,0,1-1.15,2.27c-2.29,2-7.17,1.57-7.38,1.55a1,1,0,0,0-1,.54,1,1,0,0,0,.13,1.16l9.15,10.59a1,1,0,1,0,1.56-1.34L69,34.88c2-.08,4.74-.51,6.56-2.12a5.54,5.54,0,0,0,1.86-3.81h2.68a1,1,0,0,0,0-2.06Z" transform="translate(0 -6.43)"/></svg>