<svg id="Layer_1" data-name="Layer 1" xmlns="http://www.w3.org/2000/svg" viewBox="0 0 99.79 71.43"><defs><style>.cls-1{fill:none;}.cls-2{fill:#fff;}</style></defs><title>postjobs_flat_white</title><path class="cls-1" d="M46.47,5.64H34.15c-2,0-2.36.34-3.29,2.07l-2.32,4.37H52.06L49.74,7.72C48.83,6,48.52,5.64,46.47,5.64Z"/><path class="cls-2" d="M77.18,26a24,24,0,0,1,2.81.17c-.08-2.24-.15-4.13-.19-5.42-.2-5.34-2.11-8.65-8.05-8.65h-13L54,3C52.67.49,52.21,0,49.25,0H31.37c-3,0-3.42.49-4.75,3l-4.81,9.08h-13c-5.95,0-7.86,3.36-8,8.65S0,44.25,0,44.25H36.67v-8h7.25v8H54A23.77,23.77,0,0,1,77.18,26ZM28.52,12.08l2.32-4.37c.92-1.74,1.24-2.07,3.29-2.07H46.45c2,0,2.36.34,3.29,2.07l2.32,4.37Z"/><path class="cls-2" d="M53.38,49.75V48.34H43.92v8H36.67v-8H2s.5,7.25.81,13.38c.12,2.54.87,6.72,7.25,6.72H62.53A23.71,23.71,0,0,1,53.38,49.75Z"/><path class="cls-2" d="M79.14,30.13A20.65,20.65,0,1,0,99.79,50.78,20.65,20.65,0,0,0,79.14,30.13ZM90.62,54.41H82.3v8.32H76.83V54.41H68.51V49h8.32V40.62H82.3V49h8.32Z"/></svg>