<svg id="Layer_1" data-name="Layer 1" xmlns="http://www.w3.org/2000/svg" viewBox="0 0 100 98.08"><defs><style>.cls-1{fill:#d29b0c;}</style></defs><title>register</title><path class="cls-1" d="M96.43,91.12H3.57A3.5,3.5,0,0,0,.08,94.6a3.55,3.55,0,0,0,3.48,3.48h93A3.5,3.5,0,0,0,100,94.6,3.57,3.57,0,0,0,96.43,91.12Z" transform="translate(0 0)"/><path class="cls-1" d="M.08,60.3,0,76.85A3.59,3.59,0,0,0,1,79.4a3.4,3.4,0,0,0,2.46,1l16.47-.08a3.4,3.4,0,0,0,2.46-1l56.9-56.88a3.59,3.59,0,0,0,0-5L63,1a3.59,3.59,0,0,0-5,0L46.6,12.42,1.1,57.84A3.78,3.78,0,0,0,.08,60.3ZM60.53,8.43,72,19.89l-6.45,6.45L54.07,14.88ZM7.13,61.83,49.07,19.89,60.53,31.35,18.59,73.2,7,73.29Z" transform="translate(0 0)"/></svg>