<svg id="Layer_1" data-name="Layer 1" xmlns="http://www.w3.org/2000/svg" viewBox="0 0 65.5 100.17"><defs><style>.cls-1{fill:#158ea8;}</style></defs><title>rupee_blue</title><path class="cls-1" d="M62.42,22.6H49.16A27.22,27.22,0,0,0,41,6.13H62.42A3.07,3.07,0,1,0,62.77,0H3.06a3.07,3.07,0,0,0,0,6.13H28.2C34.34,7.3,41.31,12.23,43,22.6H3.06a3.07,3.07,0,0,0,0,6.13H43.38A17,17,0,0,1,37.74,41c-10.19,9.06-30.68,7.28-33,7a3.1,3.1,0,0,0-3,1.61,3.05,3.05,0,0,0,.38,3.45L41.74,98.94a3.07,3.07,0,1,0,4.64-4l-35-40.46c8.52,0,22-1.37,30.44-8.9a22.94,22.94,0,0,0,7.67-16.85h12.9a3.07,3.07,0,0,0,.35-6.13Z" transform="translate(-0.17 0)"/></svg>