<svg id="Layer_1" data-name="Layer 1" xmlns="http://www.w3.org/2000/svg" viewBox="0 0 65.48 100"><title>rupee</title><path d="M79.68,22.6H66.42A27.22,27.22,0,0,0,58.25,6.13H79.68a3.07,3.07,0,1,0,0-6.13H20.32a3.07,3.07,0,0,0,0,6.13H45.46c6.14,1.17,13.11,6.1,14.8,16.47H20.32a3.07,3.07,0,0,0,0,6.13H60.64A17,17,0,0,1,55,41c-10.19,9.06-30.68,7.28-33,7a3.1,3.1,0,0,0-3,1.61,3.05,3.05,0,0,0,.38,3.45L59,98.94a3.07,3.07,0,1,0,4.64-4L28.67,54.48c8.52,0,22-1.37,30.44-8.9a22.94,22.94,0,0,0,7.67-16.85H79.68a3.07,3.07,0,1,0,0-6.13Z" transform="translate(-17.26)"/></svg>