<svg id="Layer_1" data-name="Layer 1" xmlns="http://www.w3.org/2000/svg" viewBox="0 0 65.51 100.17"><defs><style>.cls-1{fill:#9d3c71;}</style></defs><title>rupee_pink</title><path class="cls-1" d="M62.25,22.6H49A27.22,27.22,0,0,0,40.83,6.13H62.25A3.07,3.07,0,1,0,62.61,0H2.89a3.07,3.07,0,0,0,0,6.13H28c6.14,1.17,13.11,6.1,14.8,16.47H2.89a3.07,3.07,0,0,0,0,6.13H43.21A17,17,0,0,1,37.57,41c-10.19,9.06-30.68,7.28-33,7a3.1,3.1,0,0,0-3,1.61A3.05,3.05,0,0,0,2,53.06L41.57,98.94a3.07,3.07,0,1,0,4.64-4l-35-40.46c8.52,0,22-1.37,30.44-8.9a22.94,22.94,0,0,0,7.67-16.85h12.9a3.07,3.07,0,0,0,.35-6.13Z" transform="translate(0)"/></svg>