<svg id="Layer_1" data-name="Layer 1" xmlns="http://www.w3.org/2000/svg" viewBox="0 0 99.79 74.27"><defs><style>.cls-1{fill:#ac5282;}.cls-2{fill:none;}</style></defs><title>searchjobs</title><path class="cls-1" d="M84.14,45.13A18.56,18.56,0,1,0,81.6,73.48a3.91,3.91,0,0,0,1.06,2L93.2,86a3.92,3.92,0,0,0,5.54-5.54L88.21,69.9a3.92,3.92,0,0,0-2-1.06A18.58,18.58,0,0,0,84.14,45.13ZM80.81,68.05a13.85,13.85,0,1,1,0-19.59A13.87,13.87,0,0,1,80.81,68.05Z" transform="translate(-0.11 -12.87)"/><path class="cls-2" d="M41.58,17.9h-11c-1.83,0-2.11.3-2.94,1.85l-2.07,3.9h21l-2.07-3.9C43.69,18.2,43.41,17.9,41.58,17.9Z" transform="translate(-0.11 -12.87)"/><path class="cls-1" d="M69,36.06a21.4,21.4,0,0,1,2.51.15c-.07-2-.13-3.69-.17-4.84-.18-4.77-1.88-7.72-7.19-7.72H52.58l-4.3-8.11c-1.19-2.24-1.6-2.68-4.24-2.68H28.1c-2.65,0-3.05.44-4.24,2.68l-4.3,8.11H8c-5.31,0-7,3-7.19,7.72s-.72,21-.72,21H32.83V45.23H39.3v7.19h9A21.22,21.22,0,0,1,69,36.06ZM25.55,23.65l2.07-3.9c.82-1.55,1.11-1.85,2.94-1.85h11c1.83,0,2.11.3,2.94,1.85l2.07,3.9Z" transform="translate(-0.11 -12.87)"/><path class="cls-1" d="M47.75,57.28c0-.42,0-.84,0-1.26H39.3v7.19H32.83V56H1.91s.45,6.47.72,11.95c.11,2.27.78,6,6.47,6H55.92A21.17,21.17,0,0,1,47.75,57.28Z" transform="translate(-0.11 -12.87)"/></svg>