<svg id="Layer_1" data-name="Layer 1" xmlns="http://www.w3.org/2000/svg" viewBox="0 0 99.7 74.19"><defs><style>.cls-1{fill:#fff;}.cls-2{fill:none;}</style></defs><title>searchjobs_flat_white</title><path class="cls-1" d="M84,32.26a18.56,18.56,0,1,0-2.54,28.35,3.91,3.91,0,0,0,1.06,2L93.09,73.13a3.92,3.92,0,0,0,5.54-5.54L88.1,57a3.92,3.92,0,0,0-2-1.06A18.58,18.58,0,0,0,84,32.26ZM80.7,55.18a13.85,13.85,0,1,1,0-19.59A13.85,13.85,0,0,1,80.7,55.18Z" transform="translate(0.02 0.01)"/><path class="cls-2" d="M41.47,5h-11c-1.83,0-2.11.3-2.94,1.85l-2.07,3.9h21l-2.07-3.9C43.58,5.33,43.3,5,41.47,5Z" transform="translate(0.02 0.01)"/><path class="cls-1" d="M68.89,23.19a21.4,21.4,0,0,1,2.51.15c-.07-2-.13-3.69-.17-4.84-.18-4.77-1.88-7.72-7.19-7.72H52.47l-4.3-8.11C47,.43,46.57,0,43.93,0H28c-2.65,0-3,.44-4.24,2.68l-4.3,8.11H7.89c-5.31,0-7,3-7.19,7.72S0,39.5,0,39.5H32.72V32.36h6.47v7.19h9A21.22,21.22,0,0,1,68.89,23.19ZM25.44,10.78l2.07-3.9C28.33,5.33,28.62,5,30.45,5h11c1.83,0,2.11.3,2.94,1.85l2.07,3.9Z" transform="translate(0.02 0.01)"/><path class="cls-1" d="M47.64,44.41V43.15H39.19v7.19H32.72V43.13H1.8s.45,6.47.72,11.95c.11,2.27.78,6,6.47,6H55.81A21.17,21.17,0,0,1,47.64,44.41Z" transform="translate(0.02 0.01)"/></svg>