<svg id="Layer_1" data-name="Layer 1" xmlns="http://www.w3.org/2000/svg" viewBox="0 0 66 100"><defs><style>.cls-1{fill:#fff;}</style></defs><title>transactions_flat_white</title><path class="cls-1" d="M61.47,33V72.47C59.9,70.55,57,69,55.12,68.16V34.71a3.64,3.64,0,0,0-1.74-3.13,53.84,53.84,0,0,0-5.72-3V0H10.27V27.57a52.59,52.59,0,0,0-8.48,4A3.66,3.66,0,0,0,0,34.68V92.16a3.64,3.64,0,0,0,2.5,3.48c25.72,8.26,44.1,2.7,50.33.2a3.67,3.67,0,0,0,2.32-3.41V91.3a11.43,11.43,0,0,0,8-1.94A7,7,0,0,0,66,83.69V37C65.34,32,61.47,33,61.47,33ZM13.91,3.65H44v23.5a48.71,48.71,0,0,0-30.1-.76ZM12.09,91.83A3.83,3.83,0,1,1,15.92,88h0a3.83,3.83,0,0,1-3.83,3.83Zm0-12.33a3.83,3.83,0,1,1,3.83-3.83h0a3.83,3.83,0,0,1-3.83,3.83ZM27.8,91.83A3.83,3.83,0,1,1,31.63,88a3.83,3.83,0,0,1-3.83,3.83Zm0-12.33a3.83,3.83,0,1,1,3.83-3.83h0A3.83,3.83,0,0,1,27.8,79.5ZM43,91.83A3.83,3.83,0,1,1,46.84,88,3.83,3.83,0,0,1,43,91.83ZM43,79.5a3.83,3.83,0,1,1,3.83-3.83A3.83,3.83,0,0,1,43,79.5Zm6.34-20.15a3.55,3.55,0,0,1-3.55,3.55H9.29a3.55,3.55,0,0,1-3.55-3.55v-8.1A3.55,3.55,0,0,1,9.29,47.7H45.81a3.55,3.55,0,0,1,3.55,3.55Z" transform="translate(0.02)"/><rect class="cls-1" x="19.53" y="9.42" width="20.05" height="3.19"/><rect class="cls-1" x="19.53" y="17.47" width="8.29" height="3.19"/></svg>