<svg id="Layer_1" data-name="Layer 1" xmlns="http://www.w3.org/2000/svg" viewBox="0 0 66.05 100"><defs><style>.cls-1{fill:#ac5282;}</style></defs><title>transactions</title><path class="cls-1" d="M78.47,33V72.47C76.9,70.55,74,69,72.12,68.16V34.71a3.64,3.64,0,0,0-1.74-3.13,53.84,53.84,0,0,0-5.72-3V0H27.27V27.57a52.59,52.59,0,0,0-8.48,3.95A3.66,3.66,0,0,0,17,34.68V92.16a3.64,3.64,0,0,0,2.5,3.48c25.72,8.26,44.1,2.7,50.33.2a3.67,3.67,0,0,0,2.32-3.41V91.3a11.43,11.43,0,0,0,8.05-1.94A7,7,0,0,0,83,83.69V37C82.34,32,78.47,33,78.47,33ZM30.91,3.65H61v23.5a48.71,48.71,0,0,0-30.1-.76ZM29.09,91.83A3.83,3.83,0,1,1,32.92,88,3.83,3.83,0,0,1,29.09,91.83Zm0-12.33a3.83,3.83,0,1,1,3.83-3.83A3.83,3.83,0,0,1,29.09,79.5ZM44.8,91.83A3.83,3.83,0,1,1,48.63,88,3.83,3.83,0,0,1,44.8,91.83Zm0-12.33a3.83,3.83,0,1,1,3.83-3.83A3.83,3.83,0,0,1,44.8,79.5ZM60,91.83A3.83,3.83,0,1,1,63.84,88,3.83,3.83,0,0,1,60,91.83ZM60,79.5a3.83,3.83,0,1,1,3.83-3.83A3.83,3.83,0,0,1,60,79.5Zm6.34-20.15a3.55,3.55,0,0,1-3.55,3.55H26.29a3.55,3.55,0,0,1-3.55-3.55v-8.1a3.55,3.55,0,0,1,3.55-3.55H62.81a3.55,3.55,0,0,1,3.55,3.55Z" transform="translate(-16.98 0)"/><rect class="cls-1" x="19.53" y="9.42" width="20.05" height="3.19"/><rect class="cls-1" x="19.53" y="17.47" width="8.29" height="3.19"/></svg>