<svg id="Layer_1" data-name="Layer 1" xmlns="http://www.w3.org/2000/svg" viewBox="0 0 100 100"><defs><style>.cls-1{fill:#fff;}</style></defs><title>twitter</title><path class="cls-1" d="M71.44,40.06c0-.5,0-1,0-1.5a22.71,22.71,0,0,0,5.51-5.93,21.17,21.17,0,0,1-6.35,1.74A11.34,11.34,0,0,0,75.44,28a21.22,21.22,0,0,1-7,2.7,11,11,0,0,0-8.06-3.8c-6.1-.1-11,5.05-11,11.51a12.28,12.28,0,0,0,.29,2.67A31.11,31.11,0,0,1,26.83,28.52,12.39,12.39,0,0,0,30.25,44.3a10.57,10.57,0,0,1-5-1.53v.15A11.73,11.73,0,0,0,34.1,54.55a10.46,10.46,0,0,1-2.91.4,10.09,10.09,0,0,1-2.08-.23,11.23,11.23,0,0,0,10.32,8.22,21.32,21.32,0,0,1-13.72,5,21,21,0,0,1-2.64-.17A29.8,29.8,0,0,0,40,73.08C60.33,73.08,71.44,55.4,71.44,40.06Z"/><path class="cls-1" d="M100,50a50,50,0,1,0-50,50A50,50,0,0,0,100,50ZM4.55,50A45.45,45.45,0,1,1,50,95.45,45.45,45.45,0,0,1,4.55,50Z"/></svg>