<svg id="Layer_1" data-name="Layer 1" xmlns="http://www.w3.org/2000/svg" viewBox="0 0 100 100"><defs><style>.cls-1{fill:#e7e7e7;}.cls-2{fill:#c2c2c2;}</style></defs><title>upload_files</title><rect class="cls-1" width="100" height="100" rx="8" ry="8"/><path class="cls-2" d="M36.25,65V35a2.5,2.5,0,0,1,2.5-2.5h25a2.5,2.5,0,0,1,2.5,2.5V49.7l2.5-2.5V35a5,5,0,0,0-5-5h-25a5,5,0,0,0-5,5V65a5,5,0,0,0,5,5H52.5V67.5H38.75A2.5,2.5,0,0,1,36.25,65Zm25-27.5h-20V40h20Zm0,5h-20V45h20Zm0,5h-20V50h20Zm-20,7.5h10V52.5h-10ZM73,52.5l-1.77-1.77a2.5,2.5,0,0,0-3.53,0L57,61.46c-.49.49-2,2.38-2,3L53.75,70l5.52-1.25a30.41,30.41,0,0,0,3-2L73,56A2.5,2.5,0,0,0,73,52.5ZM61.4,65.88a12.45,12.45,0,0,1-1.23.85l-3.24-3.24a11.11,11.11,0,0,1,.93-1.14l8.08-8.08,3.54,3.54Z"/></svg>